<svg height="30" viewBox="0 0 30 30" width="30" xmlns="http://www.w3.org/2000/svg"><g fill="none" fill-rule="evenodd"><circle cx="15" cy="15" fill="#573b95" r="15"/><path d="m19.5630021 8.65102645-3.3301402-3.33425701c-.1055695-.10118429-.2300557-.18050069-.3663154-.233398-.2702535-.11116192-.573382-.11116192-.8436355 0-.1362597.05289731-.2607459.13221371-.3663154.233398l-3.3301402 3.33425701c-.4352739.43581203-.4352739 1.14240294 0 1.57821495.435274.4358121 1.1409924.4358121 1.5762664 0l1.4319602-1.44484467v15.10418427c0 .6138198.4969849 1.111419 1.1100468 1.111419.6130618 0 1.1100467-.4975992 1.1100467-1.111419v-15.10418427l1.4319602 1.44484467c.2084297.2104057.4921531.3287559.7881332.3287559s.5797035-.1183502.7881332-.3287559c.2101459-.2086873.3283499-.49276143.3283499-.78910746 0-.29634602-.118204-.58042012-.3283499-.78910749z" fill="#fff" transform="matrix(0 -1 1 0 .445676 30.445676)"/></g></svg>